<mxfile host="app.diagrams.net" agent="Mozilla/5.0 (Windows NT 10.0; Win64; x64) AppleWebKit/537.36 (KHTML, like Gecko) Chrome/135.0.0.0 Safari/537.36" version="26.2.14">
  <diagram name="PÃ¡gina-1" id="wa80fYPpw2dUU5jlrwMT">
    <mxGraphModel dx="3492" dy="1210" grid="1" gridSize="10" guides="1" tooltips="1" connect="1" arrows="1" fold="1" page="1" pageScale="1" pageWidth="1600" pageHeight="1200" math="0" shadow="0">
      <root>
        <mxCell id="0" />
        <mxCell id="1" parent="0" />
        <mxCell id="Ze0KAHEkiwnHZ6xjKRRl-1" value="Stock Inv" style="rounded=0;whiteSpace=wrap;html=1;" parent="1" vertex="1">
          <mxGeometry x="-366.5" y="450" width="120" height="40" as="geometry" />
        </mxCell>
        <mxCell id="Ze0KAHEkiwnHZ6xjKRRl-21" value="ID" style="ellipse;whiteSpace=wrap;html=1;" parent="1" vertex="1">
          <mxGeometry x="-426.5" y="370" width="80" height="40" as="geometry" />
        </mxCell>
        <mxCell id="Ze0KAHEkiwnHZ6xjKRRl-22" value="Stock&lt;div&gt;Disponible&lt;/div&gt;" style="ellipse;whiteSpace=wrap;html=1;" parent="1" vertex="1">
          <mxGeometry x="-506.5" y="370" width="80" height="40" as="geometry" />
        </mxCell>
        <mxCell id="Ze0KAHEkiwnHZ6xjKRRl-34" value="Nombre" style="ellipse;whiteSpace=wrap;html=1;" parent="1" vertex="1">
          <mxGeometry x="-346.5" y="370" width="80" height="40" as="geometry" />
        </mxCell>
        <mxCell id="Ze0KAHEkiwnHZ6xjKRRl-35" value="Descripcion" style="ellipse;whiteSpace=wrap;html=1;" parent="1" vertex="1">
          <mxGeometry x="-266.5" y="370" width="80" height="40" as="geometry" />
        </mxCell>
        <mxCell id="Ze0KAHEkiwnHZ6xjKRRl-36" value="RutaImg" style="ellipse;whiteSpace=wrap;html=1;" parent="1" vertex="1">
          <mxGeometry x="-186.5" y="370" width="80" height="40" as="geometry" />
        </mxCell>
        <mxCell id="Ze0KAHEkiwnHZ6xjKRRl-37" value="Talla" style="ellipse;whiteSpace=wrap;html=1;" parent="1" vertex="1">
          <mxGeometry x="-506.5" y="530" width="80" height="40" as="geometry" />
        </mxCell>
        <mxCell id="Ze0KAHEkiwnHZ6xjKRRl-38" value="Precio" style="ellipse;whiteSpace=wrap;html=1;" parent="1" vertex="1">
          <mxGeometry x="-426.5" y="530" width="80" height="40" as="geometry" />
        </mxCell>
        <mxCell id="Ze0KAHEkiwnHZ6xjKRRl-39" value="Stock&lt;div&gt;Reservado&lt;/div&gt;" style="ellipse;whiteSpace=wrap;html=1;" parent="1" vertex="1">
          <mxGeometry x="-346.5" y="530" width="80" height="40" as="geometry" />
        </mxCell>
        <mxCell id="Ze0KAHEkiwnHZ6xjKRRl-40" value="Stock&lt;div&gt;En Pedido&lt;/div&gt;" style="ellipse;whiteSpace=wrap;html=1;" parent="1" vertex="1">
          <mxGeometry x="-266.5" y="530" width="80" height="40" as="geometry" />
        </mxCell>
        <mxCell id="Ze0KAHEkiwnHZ6xjKRRl-41" value="Mostrar" style="ellipse;whiteSpace=wrap;html=1;" parent="1" vertex="1">
          <mxGeometry x="-186.5" y="530" width="80" height="40" as="geometry" />
        </mxCell>
        <mxCell id="Ze0KAHEkiwnHZ6xjKRRl-42" value="" style="endArrow=none;html=1;rounded=0;" parent="1" edge="1">
          <mxGeometry width="50" height="50" relative="1" as="geometry">
            <mxPoint x="-406.5" y="400" as="sourcePoint" />
            <mxPoint x="-366.5" y="400" as="targetPoint" />
          </mxGeometry>
        </mxCell>
        <mxCell id="Ze0KAHEkiwnHZ6xjKRRl-44" value="" style="endArrow=classic;startArrow=classic;html=1;rounded=0;exitX=1;exitY=1;exitDx=0;exitDy=0;entryX=0;entryY=0;entryDx=0;entryDy=0;" parent="1" source="Ze0KAHEkiwnHZ6xjKRRl-22" target="Ze0KAHEkiwnHZ6xjKRRl-1" edge="1">
          <mxGeometry width="50" height="50" relative="1" as="geometry">
            <mxPoint x="-396.5" y="680" as="sourcePoint" />
            <mxPoint x="-346.5" y="630" as="targetPoint" />
          </mxGeometry>
        </mxCell>
        <mxCell id="Ze0KAHEkiwnHZ6xjKRRl-45" value="" style="endArrow=classic;startArrow=classic;html=1;rounded=0;exitX=0.25;exitY=0;exitDx=0;exitDy=0;entryX=1;entryY=1;entryDx=0;entryDy=0;" parent="1" source="Ze0KAHEkiwnHZ6xjKRRl-1" target="Ze0KAHEkiwnHZ6xjKRRl-21" edge="1">
          <mxGeometry width="50" height="50" relative="1" as="geometry">
            <mxPoint x="-386.5" y="470" as="sourcePoint" />
            <mxPoint x="-336.5" y="420" as="targetPoint" />
          </mxGeometry>
        </mxCell>
        <mxCell id="Ze0KAHEkiwnHZ6xjKRRl-46" value="" style="endArrow=classic;startArrow=classic;html=1;rounded=0;entryX=0.5;entryY=1;entryDx=0;entryDy=0;exitX=0.5;exitY=0;exitDx=0;exitDy=0;" parent="1" source="Ze0KAHEkiwnHZ6xjKRRl-1" target="Ze0KAHEkiwnHZ6xjKRRl-34" edge="1">
          <mxGeometry width="50" height="50" relative="1" as="geometry">
            <mxPoint x="-376.5" y="480" as="sourcePoint" />
            <mxPoint x="-326.5" y="430" as="targetPoint" />
          </mxGeometry>
        </mxCell>
        <mxCell id="Ze0KAHEkiwnHZ6xjKRRl-47" value="" style="endArrow=classic;startArrow=classic;html=1;rounded=0;exitX=0.75;exitY=0;exitDx=0;exitDy=0;entryX=0;entryY=1;entryDx=0;entryDy=0;" parent="1" source="Ze0KAHEkiwnHZ6xjKRRl-1" target="Ze0KAHEkiwnHZ6xjKRRl-35" edge="1">
          <mxGeometry width="50" height="50" relative="1" as="geometry">
            <mxPoint x="-366.5" y="490" as="sourcePoint" />
            <mxPoint x="-316.5" y="440" as="targetPoint" />
          </mxGeometry>
        </mxCell>
        <mxCell id="Ze0KAHEkiwnHZ6xjKRRl-48" value="" style="endArrow=classic;startArrow=classic;html=1;rounded=0;exitX=1;exitY=0;exitDx=0;exitDy=0;entryX=0;entryY=1;entryDx=0;entryDy=0;" parent="1" source="Ze0KAHEkiwnHZ6xjKRRl-1" target="Ze0KAHEkiwnHZ6xjKRRl-36" edge="1">
          <mxGeometry width="50" height="50" relative="1" as="geometry">
            <mxPoint x="-356.5" y="460" as="sourcePoint" />
            <mxPoint x="-388.5" y="414" as="targetPoint" />
          </mxGeometry>
        </mxCell>
        <mxCell id="Ze0KAHEkiwnHZ6xjKRRl-49" value="" style="endArrow=classic;startArrow=classic;html=1;rounded=0;exitX=1;exitY=1;exitDx=0;exitDy=0;entryX=0;entryY=0;entryDx=0;entryDy=0;" parent="1" source="Ze0KAHEkiwnHZ6xjKRRl-1" target="Ze0KAHEkiwnHZ6xjKRRl-41" edge="1">
          <mxGeometry width="50" height="50" relative="1" as="geometry">
            <mxPoint x="-346.5" y="470" as="sourcePoint" />
            <mxPoint x="-378.5" y="424" as="targetPoint" />
          </mxGeometry>
        </mxCell>
        <mxCell id="Ze0KAHEkiwnHZ6xjKRRl-50" value="" style="endArrow=classic;startArrow=classic;html=1;rounded=0;exitX=0.25;exitY=1;exitDx=0;exitDy=0;entryX=1;entryY=0;entryDx=0;entryDy=0;" parent="1" source="Ze0KAHEkiwnHZ6xjKRRl-1" target="Ze0KAHEkiwnHZ6xjKRRl-38" edge="1">
          <mxGeometry width="50" height="50" relative="1" as="geometry">
            <mxPoint x="-336.5" y="480" as="sourcePoint" />
            <mxPoint x="-368.5" y="434" as="targetPoint" />
          </mxGeometry>
        </mxCell>
        <mxCell id="Ze0KAHEkiwnHZ6xjKRRl-51" value="" style="endArrow=classic;startArrow=classic;html=1;rounded=0;exitX=0.5;exitY=0;exitDx=0;exitDy=0;entryX=0.5;entryY=1;entryDx=0;entryDy=0;" parent="1" source="Ze0KAHEkiwnHZ6xjKRRl-39" target="Ze0KAHEkiwnHZ6xjKRRl-1" edge="1">
          <mxGeometry width="50" height="50" relative="1" as="geometry">
            <mxPoint x="-326.5" y="490" as="sourcePoint" />
            <mxPoint x="-358.5" y="444" as="targetPoint" />
          </mxGeometry>
        </mxCell>
        <mxCell id="Ze0KAHEkiwnHZ6xjKRRl-52" value="" style="endArrow=classic;startArrow=classic;html=1;rounded=0;exitX=0;exitY=0;exitDx=0;exitDy=0;entryX=0.75;entryY=1;entryDx=0;entryDy=0;" parent="1" source="Ze0KAHEkiwnHZ6xjKRRl-40" target="Ze0KAHEkiwnHZ6xjKRRl-1" edge="1">
          <mxGeometry width="50" height="50" relative="1" as="geometry">
            <mxPoint x="-316.5" y="500" as="sourcePoint" />
            <mxPoint x="-348.5" y="454" as="targetPoint" />
          </mxGeometry>
        </mxCell>
        <mxCell id="Ze0KAHEkiwnHZ6xjKRRl-53" value="" style="endArrow=classic;startArrow=classic;html=1;rounded=0;exitX=1;exitY=0;exitDx=0;exitDy=0;entryX=0;entryY=1;entryDx=0;entryDy=0;" parent="1" source="Ze0KAHEkiwnHZ6xjKRRl-37" target="Ze0KAHEkiwnHZ6xjKRRl-1" edge="1">
          <mxGeometry width="50" height="50" relative="1" as="geometry">
            <mxPoint x="-306.5" y="510" as="sourcePoint" />
            <mxPoint x="-338.5" y="464" as="targetPoint" />
          </mxGeometry>
        </mxCell>
        <mxCell id="Ze0KAHEkiwnHZ6xjKRRl-56" value="Comunidad" style="rounded=0;whiteSpace=wrap;html=1;" parent="1" vertex="1">
          <mxGeometry x="-1524" y="450" width="120" height="40" as="geometry" />
        </mxCell>
        <mxCell id="Ze0KAHEkiwnHZ6xjKRRl-57" value="StockMat" style="rounded=0;whiteSpace=wrap;html=1;" parent="1" vertex="1">
          <mxGeometry x="-1466.5" y="690" width="120" height="40" as="geometry" />
        </mxCell>
        <mxCell id="Ze0KAHEkiwnHZ6xjKRRl-63" value="RutaImg" style="ellipse;whiteSpace=wrap;html=1;" parent="1" vertex="1">
          <mxGeometry x="-1386.5" y="770" width="80" height="40" as="geometry" />
        </mxCell>
        <mxCell id="Ze0KAHEkiwnHZ6xjKRRl-64" value="Stock" style="ellipse;whiteSpace=wrap;html=1;" parent="1" vertex="1">
          <mxGeometry x="-1504" y="770" width="80" height="40" as="geometry" />
        </mxCell>
        <mxCell id="Ze0KAHEkiwnHZ6xjKRRl-70" value="Usuarios" style="rounded=0;whiteSpace=wrap;html=1;" parent="1" vertex="1">
          <mxGeometry x="-1166.5" y="450" width="120" height="40" as="geometry" />
        </mxCell>
        <mxCell id="Ze0KAHEkiwnHZ6xjKRRl-71" value="ID" style="ellipse;whiteSpace=wrap;html=1;" parent="1" vertex="1">
          <mxGeometry x="-1266.5" y="370" width="80" height="40" as="geometry" />
        </mxCell>
        <mxCell id="Ze0KAHEkiwnHZ6xjKRRl-74" value="Username" style="ellipse;whiteSpace=wrap;html=1;" parent="1" vertex="1">
          <mxGeometry x="-1026.5" y="370" width="80" height="40" as="geometry" />
        </mxCell>
        <mxCell id="Ze0KAHEkiwnHZ6xjKRRl-76" value="Password" style="ellipse;whiteSpace=wrap;html=1;" parent="1" vertex="1">
          <mxGeometry x="-1106.5" y="370" width="80" height="40" as="geometry" />
        </mxCell>
        <mxCell id="Ze0KAHEkiwnHZ6xjKRRl-77" value="Correo" style="ellipse;whiteSpace=wrap;html=1;" parent="1" vertex="1">
          <mxGeometry x="-1186.5" y="370" width="80" height="40" as="geometry" />
        </mxCell>
        <mxCell id="Ze0KAHEkiwnHZ6xjKRRl-78" value="Telefono&lt;span style=&quot;color: rgba(0, 0, 0, 0); font-family: monospace; font-size: 0px; text-align: start; text-wrap-mode: nowrap;&quot;&gt;%3CmxGraphModel%3E%3Croot%3E%3CmxCell%20id%3D%220%22%2F%3E%3CmxCell%20id%3D%221%22%20parent%3D%220%22%2F%3E%3CmxCell%20id%3D%222%22%20value%3D%22%22%20style%3D%22ellipse%3BwhiteSpace%3Dwrap%3Bhtml%3D1%3B%22%20vertex%3D%221%22%20parent%3D%221%22%3E%3CmxGeometry%20x%3D%22-520%22%20y%3D%22480%22%20width%3D%2280%22%20height%3D%2240%22%20as%3D%22geometry%22%2F%3E%3C%2FmxCell%3E%3C%2Froot%3E%3C%2FmxGraphModel%3E&lt;/span&gt;" style="ellipse;whiteSpace=wrap;html=1;" parent="1" vertex="1">
          <mxGeometry x="-1266.5" y="530" width="80" height="40" as="geometry" />
        </mxCell>
        <mxCell id="Ze0KAHEkiwnHZ6xjKRRl-79" value="EnviarInfo" style="ellipse;whiteSpace=wrap;html=1;" parent="1" vertex="1">
          <mxGeometry x="-1026.5" y="530" width="80" height="40" as="geometry" />
        </mxCell>
        <mxCell id="Ze0KAHEkiwnHZ6xjKRRl-80" value="Certificado&lt;div&gt;de comunidad&lt;/div&gt;" style="ellipse;whiteSpace=wrap;html=1;" parent="1" vertex="1">
          <mxGeometry x="-1106.5" y="530" width="80" height="40" as="geometry" />
        </mxCell>
        <mxCell id="Ze0KAHEkiwnHZ6xjKRRl-81" value="Rol" style="ellipse;whiteSpace=wrap;html=1;" parent="1" vertex="1">
          <mxGeometry x="-1186.5" y="530" width="80" height="40" as="geometry" />
        </mxCell>
        <mxCell id="Ze0KAHEkiwnHZ6xjKRRl-83" value="&lt;u&gt;IdUser&lt;/u&gt;" style="ellipse;whiteSpace=wrap;html=1;" parent="1" vertex="1">
          <mxGeometry x="-696.5" y="370" width="80" height="40" as="geometry" />
        </mxCell>
        <mxCell id="Ze0KAHEkiwnHZ6xjKRRl-84" value="&lt;u&gt;IdsPrendas&lt;/u&gt;" style="ellipse;whiteSpace=wrap;html=1;" parent="1" vertex="1">
          <mxGeometry x="-796.5" y="370" width="80" height="40" as="geometry" />
        </mxCell>
        <mxCell id="Ze0KAHEkiwnHZ6xjKRRl-85" value="Cantidad" style="ellipse;whiteSpace=wrap;html=1;" parent="1" vertex="1">
          <mxGeometry x="-616.5" y="370" width="80" height="40" as="geometry" />
        </mxCell>
        <mxCell id="Ze0KAHEkiwnHZ6xjKRRl-86" value="Metodo de Pago" style="ellipse;whiteSpace=wrap;html=1;" parent="1" vertex="1">
          <mxGeometry x="-696.5" y="530" width="80" height="40" as="geometry" />
        </mxCell>
        <mxCell id="Ze0KAHEkiwnHZ6xjKRRl-87" value="Precio&lt;div&gt;unitario&lt;/div&gt;" style="ellipse;whiteSpace=wrap;html=1;" parent="1" vertex="1">
          <mxGeometry x="-876.5" y="530" width="80" height="40" as="geometry" />
        </mxCell>
        <mxCell id="Ze0KAHEkiwnHZ6xjKRRl-88" value="SubTotal" style="ellipse;whiteSpace=wrap;html=1;" parent="1" vertex="1">
          <mxGeometry x="-616.5" y="530" width="80" height="40" as="geometry" />
        </mxCell>
        <mxCell id="Ze0KAHEkiwnHZ6xjKRRl-89" value="Total" style="ellipse;whiteSpace=wrap;html=1;" parent="1" vertex="1">
          <mxGeometry x="-796.5" y="530" width="80" height="40" as="geometry" />
        </mxCell>
        <mxCell id="Ze0KAHEkiwnHZ6xjKRRl-91" value="&lt;u&gt;IdUser&lt;/u&gt;" style="ellipse;whiteSpace=wrap;html=1;" parent="1" vertex="1">
          <mxGeometry x="-826.5" y="610" width="80" height="40" as="geometry" />
        </mxCell>
        <mxCell id="Ze0KAHEkiwnHZ6xjKRRl-92" value="Accion" style="ellipse;whiteSpace=wrap;html=1;" parent="1" vertex="1">
          <mxGeometry x="-666.5" y="610" width="80" height="40" as="geometry" />
        </mxCell>
        <mxCell id="Ze0KAHEkiwnHZ6xjKRRl-93" value="Fecha" style="ellipse;whiteSpace=wrap;html=1;" parent="1" vertex="1">
          <mxGeometry x="-696.5" y="770" width="80" height="40" as="geometry" />
        </mxCell>
        <mxCell id="Ze0KAHEkiwnHZ6xjKRRl-94" value="Hora" style="ellipse;whiteSpace=wrap;html=1;" parent="1" vertex="1">
          <mxGeometry x="-796.5" y="770" width="80" height="40" as="geometry" />
        </mxCell>
        <mxCell id="Ze0KAHEkiwnHZ6xjKRRl-96" value="&lt;u&gt;IdUser&lt;/u&gt;" style="ellipse;whiteSpace=wrap;html=1;" parent="1" vertex="1">
          <mxGeometry x="-1454" y="370" width="80" height="40" as="geometry" />
        </mxCell>
        <mxCell id="Ze0KAHEkiwnHZ6xjKRRl-97" value="Titulo" style="ellipse;whiteSpace=wrap;html=1;" parent="1" vertex="1">
          <mxGeometry x="-1554" y="530" width="80" height="40" as="geometry" />
        </mxCell>
        <mxCell id="Ze0KAHEkiwnHZ6xjKRRl-98" value="Descripcion" style="ellipse;whiteSpace=wrap;html=1;" parent="1" vertex="1">
          <mxGeometry x="-1454" y="530" width="80" height="40" as="geometry" />
        </mxCell>
        <mxCell id="Ze0KAHEkiwnHZ6xjKRRl-101" value="&lt;u&gt;IdPrenda&lt;/u&gt;" style="ellipse;whiteSpace=wrap;html=1;" parent="1" vertex="1">
          <mxGeometry x="-346.5" y="740" width="80" height="40" as="geometry" />
        </mxCell>
        <mxCell id="Ze0KAHEkiwnHZ6xjKRRl-102" value="PorcenOff" style="ellipse;whiteSpace=wrap;html=1;" parent="1" vertex="1">
          <mxGeometry x="-296.5" y="580" width="80" height="40" as="geometry" />
        </mxCell>
        <mxCell id="Ze0KAHEkiwnHZ6xjKRRl-104" value="Usuarios" style="ellipse;whiteSpace=wrap;html=1;" parent="1" vertex="1">
          <mxGeometry x="-1096.5" y="770" width="80" height="40" as="geometry" />
        </mxCell>
        <mxCell id="Ze0KAHEkiwnHZ6xjKRRl-105" value="Password" style="ellipse;whiteSpace=wrap;html=1;" parent="1" vertex="1">
          <mxGeometry x="-1196.5" y="770" width="80" height="40" as="geometry" />
        </mxCell>
        <mxCell id="Ze0KAHEkiwnHZ6xjKRRl-106" value="Nombre" style="ellipse;whiteSpace=wrap;html=1;" parent="1" vertex="1">
          <mxGeometry x="-1226.5" y="610" width="80" height="40" as="geometry" />
        </mxCell>
        <mxCell id="Ze0KAHEkiwnHZ6xjKRRl-107" value="Telefono" style="ellipse;whiteSpace=wrap;html=1;" parent="1" vertex="1">
          <mxGeometry x="-1066.5" y="610" width="80" height="40" as="geometry" />
        </mxCell>
        <mxCell id="Ze0KAHEkiwnHZ6xjKRRl-108" value="Pedidos" style="rounded=0;whiteSpace=wrap;html=1;" parent="1" vertex="1">
          <mxGeometry x="-766.5" y="450" width="120" height="40" as="geometry" />
        </mxCell>
        <mxCell id="Ze0KAHEkiwnHZ6xjKRRl-109" value="Resgistro de Acciones" style="rounded=0;whiteSpace=wrap;html=1;" parent="1" vertex="1">
          <mxGeometry x="-766.5" y="690" width="120" height="40" as="geometry" />
        </mxCell>
        <mxCell id="Ze0KAHEkiwnHZ6xjKRRl-110" value="UsuariosInv" style="rounded=0;whiteSpace=wrap;html=1;" parent="1" vertex="1">
          <mxGeometry x="-1166.5" y="690" width="120" height="40" as="geometry" />
        </mxCell>
        <mxCell id="Ze0KAHEkiwnHZ6xjKRRl-111" value="Ofertas" style="rounded=0;whiteSpace=wrap;html=1;" parent="1" vertex="1">
          <mxGeometry x="-366.5" y="660" width="120" height="40" as="geometry" />
        </mxCell>
        <mxCell id="Ze0KAHEkiwnHZ6xjKRRl-112" value="" style="endArrow=none;html=1;rounded=0;" parent="1" edge="1">
          <mxGeometry width="50" height="50" relative="1" as="geometry">
            <mxPoint x="-1246.5" y="400" as="sourcePoint" />
            <mxPoint x="-1206.5" y="400" as="targetPoint" />
          </mxGeometry>
        </mxCell>
        <mxCell id="Ze0KAHEkiwnHZ6xjKRRl-113" value="" style="endArrow=classic;startArrow=classic;html=1;rounded=0;entryX=0;entryY=1;entryDx=0;entryDy=0;exitX=0.75;exitY=0;exitDx=0;exitDy=0;" parent="1" source="Ze0KAHEkiwnHZ6xjKRRl-70" target="Ze0KAHEkiwnHZ6xjKRRl-76" edge="1">
          <mxGeometry width="50" height="50" relative="1" as="geometry">
            <mxPoint x="-1106.5" y="450" as="sourcePoint" />
            <mxPoint x="-976.5" y="413.5" as="targetPoint" />
          </mxGeometry>
        </mxCell>
        <mxCell id="Ze0KAHEkiwnHZ6xjKRRl-116" value="" style="endArrow=classic;startArrow=classic;html=1;rounded=0;entryX=0.25;entryY=1;entryDx=0;entryDy=0;" parent="1" target="Ze0KAHEkiwnHZ6xjKRRl-70" edge="1">
          <mxGeometry width="50" height="50" relative="1" as="geometry">
            <mxPoint x="-1118.5" y="536" as="sourcePoint" />
            <mxPoint x="-1106.5" y="490" as="targetPoint" />
          </mxGeometry>
        </mxCell>
        <mxCell id="Ze0KAHEkiwnHZ6xjKRRl-117" value="" style="endArrow=classic;startArrow=classic;html=1;rounded=0;entryX=1;entryY=1;entryDx=0;entryDy=0;exitX=0;exitY=0;exitDx=0;exitDy=0;" parent="1" source="Ze0KAHEkiwnHZ6xjKRRl-70" target="Ze0KAHEkiwnHZ6xjKRRl-71" edge="1">
          <mxGeometry width="50" height="50" relative="1" as="geometry">
            <mxPoint x="-1096.5" y="460" as="sourcePoint" />
            <mxPoint x="-1084.5" y="414" as="targetPoint" />
          </mxGeometry>
        </mxCell>
        <mxCell id="Ze0KAHEkiwnHZ6xjKRRl-119" value="" style="endArrow=classic;startArrow=classic;html=1;rounded=0;entryX=0.75;entryY=1;entryDx=0;entryDy=0;exitX=0.5;exitY=0;exitDx=0;exitDy=0;" parent="1" target="Ze0KAHEkiwnHZ6xjKRRl-70" edge="1">
          <mxGeometry width="50" height="50" relative="1" as="geometry">
            <mxPoint x="-1094.5" y="536" as="sourcePoint" />
            <mxPoint x="-1106.5" y="490" as="targetPoint" />
          </mxGeometry>
        </mxCell>
        <mxCell id="Ze0KAHEkiwnHZ6xjKRRl-120" value="" style="endArrow=classic;startArrow=classic;html=1;rounded=0;entryX=1;entryY=1;entryDx=0;entryDy=0;exitX=0.25;exitY=0;exitDx=0;exitDy=0;" parent="1" source="Ze0KAHEkiwnHZ6xjKRRl-70" edge="1">
          <mxGeometry width="50" height="50" relative="1" as="geometry">
            <mxPoint x="-1106.5" y="450" as="sourcePoint" />
            <mxPoint x="-1118.5" y="404" as="targetPoint" />
          </mxGeometry>
        </mxCell>
        <mxCell id="Ze0KAHEkiwnHZ6xjKRRl-121" value="" style="endArrow=classic;startArrow=classic;html=1;rounded=0;entryX=1;entryY=0;entryDx=0;entryDy=0;exitX=0;exitY=1;exitDx=0;exitDy=0;" parent="1" source="Ze0KAHEkiwnHZ6xjKRRl-70" target="Ze0KAHEkiwnHZ6xjKRRl-78" edge="1">
          <mxGeometry width="50" height="50" relative="1" as="geometry">
            <mxPoint x="-1106.5" y="490" as="sourcePoint" />
            <mxPoint x="-1198.5" y="444" as="targetPoint" />
          </mxGeometry>
        </mxCell>
        <mxCell id="Ze0KAHEkiwnHZ6xjKRRl-122" value="" style="endArrow=classic;startArrow=classic;html=1;rounded=0;entryX=0;entryY=1;entryDx=0;entryDy=0;exitX=1;exitY=0;exitDx=0;exitDy=0;" parent="1" source="Ze0KAHEkiwnHZ6xjKRRl-70" target="Ze0KAHEkiwnHZ6xjKRRl-74" edge="1">
          <mxGeometry width="50" height="50" relative="1" as="geometry">
            <mxPoint x="-1096.5" y="460" as="sourcePoint" />
            <mxPoint x="-1188.5" y="414" as="targetPoint" />
          </mxGeometry>
        </mxCell>
        <mxCell id="Ze0KAHEkiwnHZ6xjKRRl-123" value="" style="endArrow=classic;startArrow=classic;html=1;rounded=0;entryX=0;entryY=0;entryDx=0;entryDy=0;exitX=1;exitY=1;exitDx=0;exitDy=0;" parent="1" source="Ze0KAHEkiwnHZ6xjKRRl-70" target="Ze0KAHEkiwnHZ6xjKRRl-79" edge="1">
          <mxGeometry width="50" height="50" relative="1" as="geometry">
            <mxPoint x="-1096.5" y="460" as="sourcePoint" />
            <mxPoint x="-1004.5" y="414" as="targetPoint" />
          </mxGeometry>
        </mxCell>
        <mxCell id="Ze0KAHEkiwnHZ6xjKRRl-125" value="ID" style="ellipse;whiteSpace=wrap;html=1;" parent="1" vertex="1">
          <mxGeometry x="-876.5" y="370" width="80" height="40" as="geometry" />
        </mxCell>
        <mxCell id="Ze0KAHEkiwnHZ6xjKRRl-126" value="" style="endArrow=none;html=1;rounded=0;" parent="1" edge="1">
          <mxGeometry width="50" height="50" relative="1" as="geometry">
            <mxPoint x="-856.5" y="400" as="sourcePoint" />
            <mxPoint x="-816.5" y="400" as="targetPoint" />
          </mxGeometry>
        </mxCell>
        <mxCell id="Ze0KAHEkiwnHZ6xjKRRl-127" value="" style="endArrow=classic;startArrow=classic;html=1;rounded=0;entryX=0;entryY=1;entryDx=0;entryDy=0;exitX=0.75;exitY=0;exitDx=0;exitDy=0;" parent="1" target="Ze0KAHEkiwnHZ6xjKRRl-83" edge="1">
          <mxGeometry width="50" height="50" relative="1" as="geometry">
            <mxPoint x="-676.5" y="450" as="sourcePoint" />
            <mxPoint x="-694.5" y="404" as="targetPoint" />
          </mxGeometry>
        </mxCell>
        <mxCell id="Ze0KAHEkiwnHZ6xjKRRl-128" value="" style="endArrow=classic;startArrow=classic;html=1;rounded=0;entryX=0.25;entryY=1;entryDx=0;entryDy=0;exitX=1;exitY=0;exitDx=0;exitDy=0;" parent="1" source="Ze0KAHEkiwnHZ6xjKRRl-89" edge="1">
          <mxGeometry width="50" height="50" relative="1" as="geometry">
            <mxPoint x="-718.5" y="536" as="sourcePoint" />
            <mxPoint x="-736.5" y="490" as="targetPoint" />
          </mxGeometry>
        </mxCell>
        <mxCell id="Ze0KAHEkiwnHZ6xjKRRl-129" value="" style="endArrow=classic;startArrow=classic;html=1;rounded=0;entryX=1;entryY=1;entryDx=0;entryDy=0;exitX=0;exitY=0;exitDx=0;exitDy=0;" parent="1" target="Ze0KAHEkiwnHZ6xjKRRl-125" edge="1">
          <mxGeometry width="50" height="50" relative="1" as="geometry">
            <mxPoint x="-766.5" y="450" as="sourcePoint" />
            <mxPoint x="-684.5" y="414" as="targetPoint" />
          </mxGeometry>
        </mxCell>
        <mxCell id="Ze0KAHEkiwnHZ6xjKRRl-130" value="" style="endArrow=classic;startArrow=classic;html=1;rounded=0;entryX=0.75;entryY=1;entryDx=0;entryDy=0;exitX=0;exitY=0;exitDx=0;exitDy=0;" parent="1" source="Ze0KAHEkiwnHZ6xjKRRl-86" edge="1">
          <mxGeometry width="50" height="50" relative="1" as="geometry">
            <mxPoint x="-694.5" y="536" as="sourcePoint" />
            <mxPoint x="-676.5" y="490" as="targetPoint" />
          </mxGeometry>
        </mxCell>
        <mxCell id="Ze0KAHEkiwnHZ6xjKRRl-131" value="" style="endArrow=classic;startArrow=classic;html=1;rounded=0;entryX=1;entryY=1;entryDx=0;entryDy=0;exitX=0.25;exitY=0;exitDx=0;exitDy=0;" parent="1" target="Ze0KAHEkiwnHZ6xjKRRl-84" edge="1">
          <mxGeometry width="50" height="50" relative="1" as="geometry">
            <mxPoint x="-736.5" y="450" as="sourcePoint" />
            <mxPoint x="-718.5" y="404" as="targetPoint" />
          </mxGeometry>
        </mxCell>
        <mxCell id="Ze0KAHEkiwnHZ6xjKRRl-132" value="" style="endArrow=classic;startArrow=classic;html=1;rounded=0;entryX=1;entryY=0;entryDx=0;entryDy=0;exitX=0;exitY=1;exitDx=0;exitDy=0;" parent="1" target="Ze0KAHEkiwnHZ6xjKRRl-87" edge="1">
          <mxGeometry width="50" height="50" relative="1" as="geometry">
            <mxPoint x="-766.5" y="490" as="sourcePoint" />
            <mxPoint x="-798.5" y="536" as="targetPoint" />
          </mxGeometry>
        </mxCell>
        <mxCell id="Ze0KAHEkiwnHZ6xjKRRl-133" value="" style="endArrow=classic;startArrow=classic;html=1;rounded=0;entryX=0;entryY=1;entryDx=0;entryDy=0;exitX=1;exitY=0;exitDx=0;exitDy=0;" parent="1" target="Ze0KAHEkiwnHZ6xjKRRl-85" edge="1">
          <mxGeometry width="50" height="50" relative="1" as="geometry">
            <mxPoint x="-646.5" y="450" as="sourcePoint" />
            <mxPoint x="-614.5" y="404" as="targetPoint" />
          </mxGeometry>
        </mxCell>
        <mxCell id="Ze0KAHEkiwnHZ6xjKRRl-134" value="" style="endArrow=classic;startArrow=classic;html=1;rounded=0;entryX=0;entryY=0;entryDx=0;entryDy=0;exitX=1;exitY=1;exitDx=0;exitDy=0;" parent="1" target="Ze0KAHEkiwnHZ6xjKRRl-88" edge="1">
          <mxGeometry width="50" height="50" relative="1" as="geometry">
            <mxPoint x="-646.5" y="490" as="sourcePoint" />
            <mxPoint x="-614.5" y="536" as="targetPoint" />
          </mxGeometry>
        </mxCell>
        <mxCell id="Ze0KAHEkiwnHZ6xjKRRl-135" value="ID" style="ellipse;whiteSpace=wrap;html=1;" parent="1" vertex="1">
          <mxGeometry x="-746.5" y="610" width="80" height="40" as="geometry" />
        </mxCell>
        <mxCell id="Ze0KAHEkiwnHZ6xjKRRl-136" value="" style="endArrow=none;html=1;rounded=0;" parent="1" edge="1">
          <mxGeometry width="50" height="50" relative="1" as="geometry">
            <mxPoint x="-726.5" y="640" as="sourcePoint" />
            <mxPoint x="-686.5" y="640" as="targetPoint" />
          </mxGeometry>
        </mxCell>
        <mxCell id="Ze0KAHEkiwnHZ6xjKRRl-137" value="" style="endArrow=classic;startArrow=classic;html=1;rounded=0;exitX=0.25;exitY=0;exitDx=0;exitDy=0;entryX=1;entryY=1;entryDx=0;entryDy=0;" parent="1" edge="1">
          <mxGeometry width="50" height="50" relative="1" as="geometry">
            <mxPoint x="-736.5" y="690" as="sourcePoint" />
            <mxPoint x="-758.5" y="644" as="targetPoint" />
          </mxGeometry>
        </mxCell>
        <mxCell id="Ze0KAHEkiwnHZ6xjKRRl-138" value="" style="endArrow=classic;startArrow=classic;html=1;rounded=0;exitX=0.5;exitY=0;exitDx=0;exitDy=0;entryX=0.75;entryY=1;entryDx=0;entryDy=0;" parent="1" edge="1">
          <mxGeometry width="50" height="50" relative="1" as="geometry">
            <mxPoint x="-666.5" y="770" as="sourcePoint" />
            <mxPoint x="-676.5" y="730" as="targetPoint" />
          </mxGeometry>
        </mxCell>
        <mxCell id="Ze0KAHEkiwnHZ6xjKRRl-139" value="" style="endArrow=classic;startArrow=classic;html=1;rounded=0;exitX=0.75;exitY=0;exitDx=0;exitDy=0;entryX=0;entryY=1;entryDx=0;entryDy=0;" parent="1" edge="1">
          <mxGeometry width="50" height="50" relative="1" as="geometry">
            <mxPoint x="-676.5" y="690" as="sourcePoint" />
            <mxPoint x="-654.5" y="644" as="targetPoint" />
          </mxGeometry>
        </mxCell>
        <mxCell id="Ze0KAHEkiwnHZ6xjKRRl-140" value="" style="endArrow=classic;startArrow=classic;html=1;rounded=0;exitX=0.5;exitY=0;exitDx=0;exitDy=0;entryX=0.5;entryY=1;entryDx=0;entryDy=0;" parent="1" target="Ze0KAHEkiwnHZ6xjKRRl-135" edge="1">
          <mxGeometry width="50" height="50" relative="1" as="geometry">
            <mxPoint x="-706.5" y="690" as="sourcePoint" />
            <mxPoint x="-556.5" y="450" as="targetPoint" />
          </mxGeometry>
        </mxCell>
        <mxCell id="Ze0KAHEkiwnHZ6xjKRRl-141" value="" style="endArrow=classic;startArrow=classic;html=1;rounded=0;exitX=0.25;exitY=1;exitDx=0;exitDy=0;entryX=0.5;entryY=0;entryDx=0;entryDy=0;" parent="1" edge="1">
          <mxGeometry width="50" height="50" relative="1" as="geometry">
            <mxPoint x="-736.5" y="730" as="sourcePoint" />
            <mxPoint x="-746.5" y="770" as="targetPoint" />
          </mxGeometry>
        </mxCell>
        <mxCell id="Ze0KAHEkiwnHZ6xjKRRl-142" value="ID" style="ellipse;whiteSpace=wrap;html=1;" parent="1" vertex="1">
          <mxGeometry x="-1559" y="370" width="80" height="40" as="geometry" />
        </mxCell>
        <mxCell id="Ze0KAHEkiwnHZ6xjKRRl-143" value="" style="endArrow=none;html=1;rounded=0;" parent="1" edge="1">
          <mxGeometry width="50" height="50" relative="1" as="geometry">
            <mxPoint x="-1539" y="400" as="sourcePoint" />
            <mxPoint x="-1499" y="400" as="targetPoint" />
          </mxGeometry>
        </mxCell>
        <mxCell id="Ze0KAHEkiwnHZ6xjKRRl-144" value="" style="endArrow=classic;startArrow=classic;html=1;rounded=0;exitX=0.25;exitY=0;exitDx=0;exitDy=0;entryX=0.5;entryY=1;entryDx=0;entryDy=0;" parent="1" source="Ze0KAHEkiwnHZ6xjKRRl-56" target="Ze0KAHEkiwnHZ6xjKRRl-142" edge="1">
          <mxGeometry width="50" height="50" relative="1" as="geometry">
            <mxPoint x="-1492" y="303" as="sourcePoint" />
            <mxPoint x="-1492" y="210" as="targetPoint" />
          </mxGeometry>
        </mxCell>
        <mxCell id="Ze0KAHEkiwnHZ6xjKRRl-145" value="" style="endArrow=classic;startArrow=classic;html=1;rounded=0;exitX=0.75;exitY=0;exitDx=0;exitDy=0;entryX=0.5;entryY=1;entryDx=0;entryDy=0;" parent="1" source="Ze0KAHEkiwnHZ6xjKRRl-56" target="Ze0KAHEkiwnHZ6xjKRRl-96" edge="1">
          <mxGeometry width="50" height="50" relative="1" as="geometry">
            <mxPoint x="-1482" y="313" as="sourcePoint" />
            <mxPoint x="-1482" y="220" as="targetPoint" />
          </mxGeometry>
        </mxCell>
        <mxCell id="Ze0KAHEkiwnHZ6xjKRRl-146" value="" style="endArrow=classic;startArrow=classic;html=1;rounded=0;exitX=0.5;exitY=0;exitDx=0;exitDy=0;entryX=0.25;entryY=1;entryDx=0;entryDy=0;" parent="1" source="Ze0KAHEkiwnHZ6xjKRRl-97" target="Ze0KAHEkiwnHZ6xjKRRl-56" edge="1">
          <mxGeometry width="50" height="50" relative="1" as="geometry">
            <mxPoint x="-1499" y="530" as="sourcePoint" />
            <mxPoint x="-1489" y="490" as="targetPoint" />
          </mxGeometry>
        </mxCell>
        <mxCell id="Ze0KAHEkiwnHZ6xjKRRl-147" value="" style="endArrow=classic;startArrow=classic;html=1;rounded=0;exitX=0.5;exitY=0;exitDx=0;exitDy=0;entryX=0.75;entryY=1;entryDx=0;entryDy=0;" parent="1" source="Ze0KAHEkiwnHZ6xjKRRl-98" target="Ze0KAHEkiwnHZ6xjKRRl-56" edge="1">
          <mxGeometry width="50" height="50" relative="1" as="geometry">
            <mxPoint x="-1484" y="460" as="sourcePoint" />
            <mxPoint x="-1494" y="420" as="targetPoint" />
          </mxGeometry>
        </mxCell>
        <mxCell id="Ze0KAHEkiwnHZ6xjKRRl-148" value="ID" style="ellipse;whiteSpace=wrap;html=1;" parent="1" vertex="1">
          <mxGeometry x="-396.5" y="580" width="80" height="40" as="geometry" />
        </mxCell>
        <mxCell id="Ze0KAHEkiwnHZ6xjKRRl-149" value="" style="endArrow=none;html=1;rounded=0;" parent="1" edge="1">
          <mxGeometry width="50" height="50" relative="1" as="geometry">
            <mxPoint x="-376.5" y="610" as="sourcePoint" />
            <mxPoint x="-336.5" y="610" as="targetPoint" />
          </mxGeometry>
        </mxCell>
        <mxCell id="Ze0KAHEkiwnHZ6xjKRRl-150" value="" style="endArrow=classic;startArrow=classic;html=1;rounded=0;exitX=0.25;exitY=0;exitDx=0;exitDy=0;entryX=0.5;entryY=1;entryDx=0;entryDy=0;" parent="1" target="Ze0KAHEkiwnHZ6xjKRRl-148" edge="1">
          <mxGeometry width="50" height="50" relative="1" as="geometry">
            <mxPoint x="-336.5" y="660" as="sourcePoint" />
            <mxPoint x="-334.5" y="420" as="targetPoint" />
          </mxGeometry>
        </mxCell>
        <mxCell id="Ze0KAHEkiwnHZ6xjKRRl-151" value="" style="endArrow=classic;startArrow=classic;html=1;rounded=0;exitX=0.75;exitY=0;exitDx=0;exitDy=0;entryX=0.5;entryY=1;entryDx=0;entryDy=0;" parent="1" edge="1">
          <mxGeometry width="50" height="50" relative="1" as="geometry">
            <mxPoint x="-276.5" y="660" as="sourcePoint" />
            <mxPoint x="-266.5" y="620" as="targetPoint" />
          </mxGeometry>
        </mxCell>
        <mxCell id="Ze0KAHEkiwnHZ6xjKRRl-152" value="" style="endArrow=classic;startArrow=classic;html=1;rounded=0;exitX=0.5;exitY=0;exitDx=0;exitDy=0;entryX=0.5;entryY=1;entryDx=0;entryDy=0;" parent="1" source="Ze0KAHEkiwnHZ6xjKRRl-101" target="Ze0KAHEkiwnHZ6xjKRRl-111" edge="1">
          <mxGeometry width="50" height="50" relative="1" as="geometry">
            <mxPoint x="-326.5" y="670" as="sourcePoint" />
            <mxPoint x="-336.5" y="630" as="targetPoint" />
          </mxGeometry>
        </mxCell>
        <mxCell id="Ze0KAHEkiwnHZ6xjKRRl-153" value="ID" style="ellipse;whiteSpace=wrap;html=1;" parent="1" vertex="1">
          <mxGeometry x="-1146.5" y="610" width="80" height="40" as="geometry" />
        </mxCell>
        <mxCell id="Ze0KAHEkiwnHZ6xjKRRl-154" value="" style="endArrow=none;html=1;rounded=0;" parent="1" edge="1">
          <mxGeometry width="50" height="50" relative="1" as="geometry">
            <mxPoint x="-1126.5" y="640" as="sourcePoint" />
            <mxPoint x="-1086.5" y="640" as="targetPoint" />
          </mxGeometry>
        </mxCell>
        <mxCell id="Ze0KAHEkiwnHZ6xjKRRl-155" value="" style="endArrow=classic;startArrow=classic;html=1;rounded=0;exitX=0.25;exitY=0;exitDx=0;exitDy=0;entryX=1;entryY=1;entryDx=0;entryDy=0;" parent="1" edge="1">
          <mxGeometry width="50" height="50" relative="1" as="geometry">
            <mxPoint x="-1136.5" y="690" as="sourcePoint" />
            <mxPoint x="-1158.5" y="644" as="targetPoint" />
          </mxGeometry>
        </mxCell>
        <mxCell id="Ze0KAHEkiwnHZ6xjKRRl-156" value="" style="endArrow=classic;startArrow=classic;html=1;rounded=0;exitX=0.5;exitY=0;exitDx=0;exitDy=0;entryX=0.75;entryY=1;entryDx=0;entryDy=0;" parent="1" edge="1">
          <mxGeometry width="50" height="50" relative="1" as="geometry">
            <mxPoint x="-1066.5" y="770" as="sourcePoint" />
            <mxPoint x="-1076.5" y="730" as="targetPoint" />
          </mxGeometry>
        </mxCell>
        <mxCell id="Ze0KAHEkiwnHZ6xjKRRl-157" value="" style="endArrow=classic;startArrow=classic;html=1;rounded=0;exitX=0.75;exitY=0;exitDx=0;exitDy=0;entryX=0;entryY=1;entryDx=0;entryDy=0;" parent="1" edge="1">
          <mxGeometry width="50" height="50" relative="1" as="geometry">
            <mxPoint x="-1076.5" y="690" as="sourcePoint" />
            <mxPoint x="-1054.5" y="644" as="targetPoint" />
          </mxGeometry>
        </mxCell>
        <mxCell id="Ze0KAHEkiwnHZ6xjKRRl-158" value="" style="endArrow=classic;startArrow=classic;html=1;rounded=0;exitX=0.5;exitY=0;exitDx=0;exitDy=0;entryX=0.5;entryY=1;entryDx=0;entryDy=0;" parent="1" target="Ze0KAHEkiwnHZ6xjKRRl-153" edge="1">
          <mxGeometry width="50" height="50" relative="1" as="geometry">
            <mxPoint x="-1106.5" y="690" as="sourcePoint" />
            <mxPoint x="-956.5" y="450" as="targetPoint" />
          </mxGeometry>
        </mxCell>
        <mxCell id="Ze0KAHEkiwnHZ6xjKRRl-159" value="" style="endArrow=classic;startArrow=classic;html=1;rounded=0;exitX=0.25;exitY=1;exitDx=0;exitDy=0;entryX=0.5;entryY=0;entryDx=0;entryDy=0;" parent="1" edge="1">
          <mxGeometry width="50" height="50" relative="1" as="geometry">
            <mxPoint x="-1136.5" y="730" as="sourcePoint" />
            <mxPoint x="-1146.5" y="770" as="targetPoint" />
          </mxGeometry>
        </mxCell>
        <mxCell id="Ze0KAHEkiwnHZ6xjKRRl-161" value="" style="endArrow=none;html=1;rounded=0;" parent="1" edge="1">
          <mxGeometry width="50" height="50" relative="1" as="geometry">
            <mxPoint x="-1444" y="400" as="sourcePoint" />
            <mxPoint x="-1404" y="400" as="targetPoint" />
          </mxGeometry>
        </mxCell>
        <mxCell id="Ze0KAHEkiwnHZ6xjKRRl-162" value="" style="endArrow=none;html=1;rounded=0;" parent="1" edge="1">
          <mxGeometry width="50" height="50" relative="1" as="geometry">
            <mxPoint x="-336.5" y="770" as="sourcePoint" />
            <mxPoint x="-276.5" y="770" as="targetPoint" />
          </mxGeometry>
        </mxCell>
        <mxCell id="Ze0KAHEkiwnHZ6xjKRRl-164" value="" style="endArrow=none;html=1;rounded=0;entryX=0.888;entryY=0.74;entryDx=0;entryDy=0;entryPerimeter=0;" parent="1" target="Ze0KAHEkiwnHZ6xjKRRl-84" edge="1">
          <mxGeometry width="50" height="50" relative="1" as="geometry">
            <mxPoint x="-786.5" y="400" as="sourcePoint" />
            <mxPoint x="-746.5" y="400" as="targetPoint" />
          </mxGeometry>
        </mxCell>
        <mxCell id="Ze0KAHEkiwnHZ6xjKRRl-165" value="" style="endArrow=none;html=1;rounded=0;" parent="1" edge="1">
          <mxGeometry width="50" height="50" relative="1" as="geometry">
            <mxPoint x="-806.5" y="640" as="sourcePoint" />
            <mxPoint x="-766.5" y="640" as="targetPoint" />
          </mxGeometry>
        </mxCell>
        <mxCell id="Ze0KAHEkiwnHZ6xjKRRl-166" value="" style="endArrow=none;html=1;rounded=0;" parent="1" edge="1">
          <mxGeometry width="50" height="50" relative="1" as="geometry">
            <mxPoint x="-676.5" y="400" as="sourcePoint" />
            <mxPoint x="-636.5" y="400" as="targetPoint" />
          </mxGeometry>
        </mxCell>
        <mxCell id="Ze0KAHEkiwnHZ6xjKRRl-186" value="Relacionar" style="rhombus;whiteSpace=wrap;html=1;" parent="1" vertex="1">
          <mxGeometry x="-1326.5" y="430" width="80" height="80" as="geometry" />
        </mxCell>
        <mxCell id="Ze0KAHEkiwnHZ6xjKRRl-187" value="Asociar&lt;span style=&quot;color: rgba(0, 0, 0, 0); font-family: monospace; font-size: 0px; text-align: start; text-wrap-mode: nowrap;&quot;&gt;%3CmxGraphModel%3E%3Croot%3E%3CmxCell%20id%3D%220%22%2F%3E%3CmxCell%20id%3D%221%22%20parent%3D%220%22%2F%3E%3CmxCell%20id%3D%222%22%20value%3D%22%22%20style%3D%22rhombus%3BwhiteSpace%3Dwrap%3Bhtml%3D1%3B%22%20vertex%3D%221%22%20parent%3D%221%22%3E%3CmxGeometry%20x%3D%22-880%22%20y%3D%22960%22%20width%3D%2280%22%20height%3D%2280%22%20as%3D%22geometry%22%2F%3E%3C%2FmxCell%3E%3C%2Froot%3E%3C%2FmxGraphModel%3E&lt;/span&gt;" style="rhombus;whiteSpace=wrap;html=1;" parent="1" vertex="1">
          <mxGeometry x="-946.5" y="430" width="80" height="80" as="geometry" />
        </mxCell>
        <mxCell id="Ze0KAHEkiwnHZ6xjKRRl-189" value="Vincular" style="rhombus;whiteSpace=wrap;html=1;" parent="1" vertex="1">
          <mxGeometry x="-546.5" y="430" width="80" height="80" as="geometry" />
        </mxCell>
        <mxCell id="Ze0KAHEkiwnHZ6xjKRRl-190" value="Registrar" style="rhombus;whiteSpace=wrap;html=1;" parent="1" vertex="1">
          <mxGeometry x="-946.5" y="670" width="80" height="80" as="geometry" />
        </mxCell>
        <mxCell id="Ze0KAHEkiwnHZ6xjKRRl-191" value="Relacionar" style="rhombus;whiteSpace=wrap;html=1;" parent="1" vertex="1">
          <mxGeometry x="-121" y="640" width="80" height="80" as="geometry" />
        </mxCell>
        <mxCell id="Ze0KAHEkiwnHZ6xjKRRl-195" value="( 1 : M )" style="text;html=1;align=center;verticalAlign=middle;whiteSpace=wrap;rounded=0;" parent="1" vertex="1">
          <mxGeometry x="-846.5" y="690" width="60" height="30" as="geometry" />
        </mxCell>
        <mxCell id="Ze0KAHEkiwnHZ6xjKRRl-204" value="" style="endArrow=classic;startArrow=classic;html=1;rounded=0;exitX=0;exitY=0.5;exitDx=0;exitDy=0;" parent="1" source="Ze0KAHEkiwnHZ6xjKRRl-186" edge="1">
          <mxGeometry width="50" height="50" relative="1" as="geometry">
            <mxPoint x="-1366.5" y="470" as="sourcePoint" />
            <mxPoint x="-1406.5" y="470" as="targetPoint" />
          </mxGeometry>
        </mxCell>
        <mxCell id="H6OpgmsVoXAzTz91gzLw-3" value="( M : 1 )" style="text;html=1;align=center;verticalAlign=middle;whiteSpace=wrap;rounded=0;" vertex="1" parent="1">
          <mxGeometry x="-1396.5" y="450" width="60" height="30" as="geometry" />
        </mxCell>
        <mxCell id="H6OpgmsVoXAzTz91gzLw-11" value="Nombre" style="ellipse;whiteSpace=wrap;html=1;" vertex="1" parent="1">
          <mxGeometry x="-1526.5" y="610" width="80" height="40" as="geometry" />
        </mxCell>
        <mxCell id="H6OpgmsVoXAzTz91gzLw-12" value="Telefono" style="ellipse;whiteSpace=wrap;html=1;" vertex="1" parent="1">
          <mxGeometry x="-1366.5" y="610" width="80" height="40" as="geometry" />
        </mxCell>
        <mxCell id="H6OpgmsVoXAzTz91gzLw-13" value="ID" style="ellipse;whiteSpace=wrap;html=1;" vertex="1" parent="1">
          <mxGeometry x="-1446.5" y="610" width="80" height="40" as="geometry" />
        </mxCell>
        <mxCell id="H6OpgmsVoXAzTz91gzLw-14" value="" style="endArrow=none;html=1;rounded=0;" edge="1" parent="1">
          <mxGeometry width="50" height="50" relative="1" as="geometry">
            <mxPoint x="-1426.5" y="640" as="sourcePoint" />
            <mxPoint x="-1386.5" y="640" as="targetPoint" />
          </mxGeometry>
        </mxCell>
        <mxCell id="H6OpgmsVoXAzTz91gzLw-15" value="" style="endArrow=classic;startArrow=classic;html=1;rounded=0;exitX=0.25;exitY=0;exitDx=0;exitDy=0;entryX=1;entryY=1;entryDx=0;entryDy=0;" edge="1" parent="1">
          <mxGeometry width="50" height="50" relative="1" as="geometry">
            <mxPoint x="-1436.5" y="690" as="sourcePoint" />
            <mxPoint x="-1458.5" y="644" as="targetPoint" />
          </mxGeometry>
        </mxCell>
        <mxCell id="H6OpgmsVoXAzTz91gzLw-16" value="" style="endArrow=classic;startArrow=classic;html=1;rounded=0;exitX=0.5;exitY=0;exitDx=0;exitDy=0;entryX=0.75;entryY=1;entryDx=0;entryDy=0;" edge="1" parent="1">
          <mxGeometry width="50" height="50" relative="1" as="geometry">
            <mxPoint x="-1366.5" y="770" as="sourcePoint" />
            <mxPoint x="-1376.5" y="730" as="targetPoint" />
          </mxGeometry>
        </mxCell>
        <mxCell id="H6OpgmsVoXAzTz91gzLw-17" value="" style="endArrow=classic;startArrow=classic;html=1;rounded=0;exitX=0.75;exitY=0;exitDx=0;exitDy=0;entryX=0;entryY=1;entryDx=0;entryDy=0;" edge="1" parent="1">
          <mxGeometry width="50" height="50" relative="1" as="geometry">
            <mxPoint x="-1376.5" y="690" as="sourcePoint" />
            <mxPoint x="-1354.5" y="644" as="targetPoint" />
          </mxGeometry>
        </mxCell>
        <mxCell id="H6OpgmsVoXAzTz91gzLw-18" value="" style="endArrow=classic;startArrow=classic;html=1;rounded=0;exitX=0.5;exitY=0;exitDx=0;exitDy=0;entryX=0.5;entryY=1;entryDx=0;entryDy=0;" edge="1" parent="1" target="H6OpgmsVoXAzTz91gzLw-13">
          <mxGeometry width="50" height="50" relative="1" as="geometry">
            <mxPoint x="-1406.5" y="690" as="sourcePoint" />
            <mxPoint x="-1256.5" y="450" as="targetPoint" />
          </mxGeometry>
        </mxCell>
        <mxCell id="H6OpgmsVoXAzTz91gzLw-19" value="" style="endArrow=classic;startArrow=classic;html=1;rounded=0;exitX=0.25;exitY=1;exitDx=0;exitDy=0;entryX=0.5;entryY=0;entryDx=0;entryDy=0;" edge="1" parent="1">
          <mxGeometry width="50" height="50" relative="1" as="geometry">
            <mxPoint x="-1436.5" y="730" as="sourcePoint" />
            <mxPoint x="-1446.5" y="770" as="targetPoint" />
          </mxGeometry>
        </mxCell>
        <mxCell id="H6OpgmsVoXAzTz91gzLw-20" value="" style="endArrow=classic;startArrow=classic;html=1;rounded=0;exitX=1;exitY=0.5;exitDx=0;exitDy=0;entryX=0;entryY=0.5;entryDx=0;entryDy=0;" edge="1" parent="1" source="Ze0KAHEkiwnHZ6xjKRRl-110" target="Ze0KAHEkiwnHZ6xjKRRl-190">
          <mxGeometry width="50" height="50" relative="1" as="geometry">
            <mxPoint x="-1006.5" y="920" as="sourcePoint" />
            <mxPoint x="-956.5" y="870" as="targetPoint" />
          </mxGeometry>
        </mxCell>
        <mxCell id="H6OpgmsVoXAzTz91gzLw-21" value="" style="endArrow=classic;startArrow=classic;html=1;rounded=0;exitX=1;exitY=0.5;exitDx=0;exitDy=0;entryX=0;entryY=0.5;entryDx=0;entryDy=0;" edge="1" parent="1">
          <mxGeometry width="50" height="50" relative="1" as="geometry">
            <mxPoint x="-866.5" y="709.6" as="sourcePoint" />
            <mxPoint x="-766.5" y="709.6" as="targetPoint" />
          </mxGeometry>
        </mxCell>
        <mxCell id="H6OpgmsVoXAzTz91gzLw-22" value="" style="endArrow=classic;startArrow=classic;html=1;rounded=0;exitX=1;exitY=0.5;exitDx=0;exitDy=0;entryX=0;entryY=0.5;entryDx=0;entryDy=0;" edge="1" parent="1" target="Ze0KAHEkiwnHZ6xjKRRl-191">
          <mxGeometry width="50" height="50" relative="1" as="geometry">
            <mxPoint x="-246.5" y="679.6" as="sourcePoint" />
            <mxPoint x="-146.5" y="679.6" as="targetPoint" />
          </mxGeometry>
        </mxCell>
        <mxCell id="H6OpgmsVoXAzTz91gzLw-23" value="" style="endArrow=classic;startArrow=classic;html=1;rounded=0;exitX=1;exitY=0.5;exitDx=0;exitDy=0;entryX=0.5;entryY=0;entryDx=0;entryDy=0;" edge="1" parent="1" target="Ze0KAHEkiwnHZ6xjKRRl-191">
          <mxGeometry width="50" height="50" relative="1" as="geometry">
            <mxPoint x="-246.5" y="469.6" as="sourcePoint" />
            <mxPoint x="-126.5" y="470" as="targetPoint" />
            <Array as="points">
              <mxPoint x="-81" y="470" />
            </Array>
          </mxGeometry>
        </mxCell>
        <mxCell id="H6OpgmsVoXAzTz91gzLw-24" value="" style="endArrow=classic;startArrow=classic;html=1;rounded=0;exitX=1;exitY=0.5;exitDx=0;exitDy=0;" edge="1" parent="1">
          <mxGeometry width="50" height="50" relative="1" as="geometry">
            <mxPoint x="-466.5" y="469.6" as="sourcePoint" />
            <mxPoint x="-366.5" y="470" as="targetPoint" />
          </mxGeometry>
        </mxCell>
        <mxCell id="H6OpgmsVoXAzTz91gzLw-25" value="" style="endArrow=classic;startArrow=classic;html=1;rounded=0;exitX=1;exitY=0.5;exitDx=0;exitDy=0;" edge="1" parent="1">
          <mxGeometry width="50" height="50" relative="1" as="geometry">
            <mxPoint x="-646.5" y="469.20000000000005" as="sourcePoint" />
            <mxPoint x="-546.5" y="469.6" as="targetPoint" />
          </mxGeometry>
        </mxCell>
        <mxCell id="H6OpgmsVoXAzTz91gzLw-26" value="" style="endArrow=classic;startArrow=classic;html=1;rounded=0;exitX=1;exitY=0.5;exitDx=0;exitDy=0;" edge="1" parent="1">
          <mxGeometry width="50" height="50" relative="1" as="geometry">
            <mxPoint x="-866.5" y="470" as="sourcePoint" />
            <mxPoint x="-766.5" y="470.4" as="targetPoint" />
          </mxGeometry>
        </mxCell>
        <mxCell id="H6OpgmsVoXAzTz91gzLw-27" value="" style="endArrow=classic;startArrow=classic;html=1;rounded=0;" edge="1" parent="1">
          <mxGeometry width="50" height="50" relative="1" as="geometry">
            <mxPoint x="-1246.5" y="470" as="sourcePoint" />
            <mxPoint x="-1166.5" y="469.6" as="targetPoint" />
          </mxGeometry>
        </mxCell>
        <mxCell id="H6OpgmsVoXAzTz91gzLw-28" value="" style="endArrow=classic;startArrow=classic;html=1;rounded=0;entryX=0;entryY=0.5;entryDx=0;entryDy=0;" edge="1" parent="1" target="Ze0KAHEkiwnHZ6xjKRRl-187">
          <mxGeometry width="50" height="50" relative="1" as="geometry">
            <mxPoint x="-1046.5" y="470" as="sourcePoint" />
            <mxPoint x="-966.5" y="469.6" as="targetPoint" />
          </mxGeometry>
        </mxCell>
        <mxCell id="H6OpgmsVoXAzTz91gzLw-30" value="( M : 1 )" style="text;html=1;align=center;verticalAlign=middle;whiteSpace=wrap;rounded=0;" vertex="1" parent="1">
          <mxGeometry x="-1236.5" y="450" width="60" height="30" as="geometry" />
        </mxCell>
        <mxCell id="H6OpgmsVoXAzTz91gzLw-31" value="( 1 : M )" style="text;html=1;align=center;verticalAlign=middle;whiteSpace=wrap;rounded=0;" vertex="1" parent="1">
          <mxGeometry x="-1016.5" y="450" width="60" height="30" as="geometry" />
        </mxCell>
        <mxCell id="H6OpgmsVoXAzTz91gzLw-32" value="( 1 : M )" style="text;html=1;align=center;verticalAlign=middle;whiteSpace=wrap;rounded=0;" vertex="1" parent="1">
          <mxGeometry x="-856.5" y="450" width="60" height="30" as="geometry" />
        </mxCell>
        <mxCell id="H6OpgmsVoXAzTz91gzLw-33" value="( 1 : M )" style="text;html=1;align=center;verticalAlign=middle;whiteSpace=wrap;rounded=0;" vertex="1" parent="1">
          <mxGeometry x="-626.5" y="450" width="60" height="30" as="geometry" />
        </mxCell>
        <mxCell id="H6OpgmsVoXAzTz91gzLw-34" value="( 1 : M )" style="text;html=1;align=center;verticalAlign=middle;whiteSpace=wrap;rounded=0;" vertex="1" parent="1">
          <mxGeometry x="-446.5" y="450" width="60" height="30" as="geometry" />
        </mxCell>
        <mxCell id="H6OpgmsVoXAzTz91gzLw-35" value="( 1 : M )" style="text;html=1;align=center;verticalAlign=middle;whiteSpace=wrap;rounded=0;" vertex="1" parent="1">
          <mxGeometry x="-186.5" y="450" width="60" height="30" as="geometry" />
        </mxCell>
        <mxCell id="H6OpgmsVoXAzTz91gzLw-37" value="( M : 1 )" style="text;html=1;align=center;verticalAlign=middle;whiteSpace=wrap;rounded=0;" vertex="1" parent="1">
          <mxGeometry x="-216.5" y="660" width="60" height="30" as="geometry" />
        </mxCell>
        <mxCell id="H6OpgmsVoXAzTz91gzLw-38" value="( 1 : M )" style="text;html=1;align=center;verticalAlign=middle;whiteSpace=wrap;rounded=0;" vertex="1" parent="1">
          <mxGeometry x="-1026.5" y="690" width="60" height="30" as="geometry" />
        </mxCell>
      </root>
    </mxGraphModel>
  </diagram>
</mxfile>
